<?xml version="1.0" encoding="utf-8"?>
<!-- Generator: Adobe Illustrator 22.1.0, SVG Export Plug-In . SVG Version: 6.00 Build 0)  -->
<svg version="1.1" id="Layer_1" xmlns="http://www.w3.org/2000/svg" xmlns:xlink="http://www.w3.org/1999/xlink" x="0px" y="0px"
	 viewBox="0 0 416 480" style="enable-background:new 0 0 416 480;" xml:space="preserve">
<style type="text/css">
	.st0{fill:#060737;}
</style>
<title>creativity</title>
<path class="st0" d="M304,320c0-5.9-2.2-11.6-6.2-16c8.3-9,8.3-23,0-32c8.7-9.5,8.3-24.2-1-33.2C326.7,213,343.9,175.5,344,136
	C344,61,283,0,208,0S72,61,72,136c0.1,39.5,17.3,77,47.3,102.8c-9.3,9-9.7,23.7-1,33.2c-8.3,9-8.3,23,0,32
	c-8.9,9.7-8.2,24.7,1.5,33.6c2.4,2.2,5.2,3.9,8.3,4.9V400c0,2.1,0.9,4.1,2.4,5.6l0,0l72,72c3.1,3.1,8.2,3.1,11.3,0c0,0,0,0,0,0
	l72-72l0,0c1.5-1.5,2.3-3.5,2.3-5.6v-57.5C297.6,339.2,304,330.1,304,320z M128,288c0-4.4,3.6-8,8-8h144c4.4,0,8,3.6,8,8s-3.6,8-8,8
	H136C131.6,296,128,292.4,128,288z M128,256c0-4.4,3.6-8,8-8h144h0.1c4.4,0,8,3.6,8,8s-3.6,8-8,8H136C131.6,264,128,260.4,128,256z
	 M189.1,169.9l-30.9-25.8c-9-7.5-14.2-18.6-14.2-30.4C144,100,155.2,88,168,88c2.5,0,4.9,0.4,7.3,1.2c-0.2,0.2-0.3,0.5-0.4,0.7
	c-0.8,1.2-1.6,2.5-2.3,3.8c-0.1,0.3-0.3,0.6-0.5,0.9c-0.8,1.6-1.4,3.3-2,5c-0.1,0.4-0.3,0.9-0.4,1.3c-0.4,1.3-0.7,2.7-1,4.1
	c-0.1,0.5-0.2,1-0.3,1.5c-0.3,1.8-0.4,3.6-0.4,5.5c0,12.1,5.6,23.5,15,31c2.9,2.3,7.1,2.3,10,0c9.4-7.5,15-18.9,15-31
	c0-1.8-0.2-3.7-0.4-5.5c-0.1-0.5-0.2-1-0.3-1.5c-0.3-1.4-0.6-2.7-1-4.1c-0.1-0.4-0.2-0.9-0.4-1.3c-0.6-1.7-1.2-3.4-2-5
	c-0.1-0.3-0.3-0.6-0.5-0.8c-0.7-1.3-1.5-2.6-2.3-3.9c-0.1-0.2-0.2-0.5-0.4-0.7c4.7-1.6,9.8-1.6,14.5,0c-0.1,0.2-0.3,0.5-0.4,0.7
	c-0.8,1.2-1.6,2.5-2.3,3.9c-0.1,0.3-0.3,0.6-0.5,0.8c-0.8,1.6-1.4,3.3-2,5c-0.1,0.4-0.3,0.9-0.4,1.3c-0.4,1.3-0.7,2.7-1,4.1
	c-0.1,0.5-0.2,1-0.3,1.5c-0.3,1.8-0.4,3.6-0.4,5.5c0,12.1,5.6,23.5,15,31c2.9,2.3,7.1,2.3,10,0c9.4-7.5,15-18.9,15-31
	c0-1.8-0.2-3.7-0.4-5.5c-0.1-0.5-0.2-1-0.3-1.5c-0.3-1.4-0.6-2.7-1-4.1c-0.1-0.4-0.2-0.9-0.4-1.3c-0.6-1.7-1.2-3.4-2-5
	c-0.1-0.3-0.3-0.6-0.5-0.9c-0.7-1.3-1.5-2.6-2.3-3.8c-0.1-0.2-0.3-0.5-0.4-0.7c2.3-0.8,4.8-1.2,7.3-1.2c12.8,0,24,12,24,25.7
	c0,11.7-5.2,22.9-14.2,30.4l-30.9,25.8c-1.8,1.5-2.9,3.8-2.9,6.1v56h-32v-56C192,173.6,190.9,171.4,189.1,169.9z M189.7,101.9
	c0.7,1.4,1.2,2.9,1.6,4.4c0.1,0.4,0.2,0.7,0.2,1.1c0.7,3.1,0.7,6.3,0,9.4c-0.1,0.4-0.2,0.7-0.2,1.1c-0.4,1.5-0.9,3-1.6,4.4
	c0,0.1-0.1,0.2-0.2,0.3c-0.5,0.8-0.9,1.6-1.5,2.4c-0.5-0.8-1-1.5-1.5-2.4c0-0.1-0.1-0.2-0.2-0.3c-0.7-1.4-1.2-2.9-1.6-4.4
	c-0.1-0.4-0.2-0.7-0.2-1.1c-0.7-3.1-0.7-6.3,0-9.4c0.1-0.4,0.2-0.7,0.2-1.1c0.4-1.5,0.9-3,1.6-4.4l0.2-0.3c0.5-0.8,0.9-1.6,1.5-2.3
	c0.5,0.8,1,1.5,1.5,2.3C189.5,101.6,189.6,101.7,189.7,101.9L189.7,101.9z M229.7,101.9c0.7,1.4,1.2,2.9,1.5,4.4
	c0.1,0.4,0.2,0.7,0.2,1.1c0.7,3.1,0.7,6.3,0,9.4c-0.1,0.4-0.2,0.7-0.2,1.1c-0.4,1.5-0.9,3-1.5,4.4c0,0.1-0.1,0.2-0.2,0.3
	c-0.5,0.8-0.9,1.6-1.5,2.4c-0.5-0.8-1-1.5-1.5-2.4c0-0.1-0.1-0.2-0.2-0.3c-0.7-1.4-1.2-2.9-1.5-4.4c-0.1-0.4-0.2-0.7-0.2-1.1
	c-0.7-3.1-0.7-6.3,0-9.4c0.1-0.4,0.2-0.7,0.2-1.1c0.4-1.5,0.9-3,1.5-4.4l0.2-0.3c0.5-0.8,0.9-1.6,1.5-2.3c0.5,0.8,1,1.5,1.5,2.3
	C229.5,101.6,229.6,101.7,229.7,101.9L229.7,101.9z M88,136C87.9,69.7,141.6,15.9,207.9,15.9S327.9,69.5,328,135.7
	c0,37.9-17.8,73.6-48.2,96.3H240v-52.3l28-23.4c12.7-10.5,20-26.2,20-42.7c0-22.6-18.3-41.7-40-41.7c-7,0-14,1.9-20,5.6
	c-12.4-7.2-27.6-7.2-40,0c-6-3.6-13-5.6-20-5.6c-21.7,0-40,19.1-40,41.7c0,16.5,7.3,32.1,20,42.7l28,23.3V232h-39.8
	C105.9,209.3,88.1,173.8,88,136z M148.6,401.2l11.4-7.6l19.6,13c2.7,1.8,6.2,1.8,8.9,0l19.6-13l19.6,13c2.7,1.8,6.2,1.8,8.9,0
	l19.6-13l11.4,7.6L236.7,432h-57.4L148.6,401.2z M260.4,377.3c-2.7-1.8-6.2-1.8-8.9,0l-19.6,13l-19.6-13c-2.7-1.8-6.2-1.8-8.9,0
	l-19.6,13l-19.6-13c-2.7-1.8-6.2-1.8-8.9,0L144,385v-41h128v41L260.4,377.3z M208,460.7L195.3,448h25.4L208,460.7z M280,328H136
	c-4.4,0-8-3.6-8-8s3.6-8,8-8h144c4.4,0,8,3.6,8,8S284.4,328,280,328z"/>
<rect x="329.4" y="16" transform="matrix(0.7071 -0.7071 0.7071 0.7071 86.12 255.9293)" class="st0" width="45.3" height="16"/>
<rect x="344" y="225.4" transform="matrix(0.7071 -0.7071 0.7071 0.7071 -72.2539 321.5305)" class="st0" width="16" height="45.3"/>
<rect x="368" y="128" class="st0" width="48" height="16"/>
<rect x="56" y="1.4" transform="matrix(0.7071 -0.7071 0.7071 0.7071 1.7729 52.291)" class="st0" width="16" height="45.3"/>
<rect x="41.4" y="240" transform="matrix(0.7071 -0.7071 0.7071 0.7071 -156.6169 117.8939)" class="st0" width="45.3" height="16"/>
<rect y="128" class="st0" width="48" height="16"/>
<rect x="304" y="384" class="st0" width="16" height="16"/>
<rect x="336" y="384" class="st0" width="16" height="16"/>
<rect x="368" y="384" class="st0" width="16" height="16"/>
<rect x="32" y="384" class="st0" width="16" height="16"/>
<rect x="64" y="384" class="st0" width="16" height="16"/>
<rect x="96" y="384" class="st0" width="16" height="16"/>
</svg>
