<svg id="Layer_1" data-name="Layer 1" xmlns="http://www.w3.org/2000/svg" viewBox="0 0 2026.36 778.92"><defs><style>.cls-1{fill:#bf9b9f;}</style></defs><title>header</title><path class="cls-1" d="M2027.36,728.78c-24.13,0-24.13,50.14-48.26,50.14s-24.12-50.14-48.25-50.14-24.13,50.14-48.25,50.14-24.13-50.14-48.25-50.14-24.13,50.14-48.25,50.14-24.13-50.14-48.25-50.14-24.13,50.14-48.25,50.14-24.13-50.14-48.25-50.14-24.13,50.14-48.25,50.14-24.13-50.14-48.25-50.14-24.12,50.14-48.25,50.14-24.12-50.14-48.24-50.14-24.13,50.14-48.25,50.14-24.12-50.14-48.25-50.14-24.12,50.14-48.24,50.14-24.13-50.14-48.25-50.14-24.12,50.14-48.24,50.14-24.12-50.14-48.25-50.14-24.12,50.14-48.24,50.14-24.12-50.14-48.24-50.14-24.13,50.14-48.25,50.14S990,728.78,965.9,728.78s-24.12,50.14-48.24,50.14-24.13-50.14-48.25-50.14-24.12,50.14-48.25,50.14S797,728.78,772.92,728.78s-24.12,50.14-48.25,50.14-24.12-50.14-48.24-50.14-24.13,50.14-48.25,50.14-24.12-50.14-48.25-50.14-24.12,50.14-48.24,50.14-24.13-50.14-48.25-50.14-24.12,50.14-48.24,50.14S411.08,728.78,387,728.78s-24.12,50.14-48.24,50.14-24.12-50.14-48.25-50.14-24.12,50.14-48.24,50.14S218.1,728.78,194,728.78s-24.13,50.14-48.25,50.14-24.12-50.14-48.24-50.14-24.12,50.14-48.24,50.14S25.12,728.78,1,728.78V0H2024.72Z" transform="translate(-1)"/></svg>