<?xml version="1.0" encoding="utf-8"?>
<!-- Generator: Adobe Illustrator 22.1.0, SVG Export Plug-In . SVG Version: 6.00 Build 0)  -->
<svg version="1.1" id="Capa_1" xmlns="http://www.w3.org/2000/svg" xmlns:xlink="http://www.w3.org/1999/xlink" x="0px" y="0px"
	 viewBox="0 0 384 480" style="enable-background:new 0 0 384 480;" xml:space="preserve">
<style type="text/css">
	.st0{fill:#060737;}
</style>
<title>web</title>
<path class="st0" d="M384,256V40c0-22.1-17.9-40-40-40H40C17.9,0,0,17.9,0,40v216c0,22.1,17.9,40,40,40h109.4L138,336h-26v16h160
	v-16h-26l-11.4-40H344C366.1,296,384,278.1,384,256z M40,16h304c13.3,0,24,10.7,24,24v184H16V40C16,26.7,26.7,16,40,16z M229.4,336
	h-74.8l11.4-40h52L229.4,336z M344,280H40c-13.3,0-24-10.7-24-24v-16h352v16C368,269.3,357.3,280,344,280z"/>
<path class="st0" d="M32,368c-4.4,0-8,3.6-8,8v96c0,4.4,3.6,8,8,8h224c4.4,0,8-3.6,8-8v-96c0-4.4-3.6-8-8-8H32z M248,464H40v-80h208
	V464z"/>
<rect x="56" y="432" class="st0" width="16" height="16"/>
<rect x="56" y="400" class="st0" width="16" height="16"/>
<rect x="88" y="400" class="st0" width="16" height="16"/>
<rect x="120" y="400" class="st0" width="16" height="16"/>
<rect x="184" y="400" class="st0" width="16" height="16"/>
<rect x="152" y="400" class="st0" width="16" height="16"/>
<rect x="216" y="432" class="st0" width="16" height="16"/>
<rect x="216" y="400" class="st0" width="16" height="16"/>
<rect x="88" y="432" class="st0" width="112" height="16"/>
<path class="st0" d="M280,408v32c0,22.1,17.9,40,40,40s40-17.9,40-40v-32c0-22.1-17.9-40-40-40S280,385.9,280,408z M344,408v32
	c0,13.3-10.7,24-24,24s-24-10.7-24-24v-32c0-13.3,10.7-24,24-24S344,394.7,344,408z"/>
<rect x="312" y="400" class="st0" width="16" height="16"/>
<rect x="133.7" y="120.1" transform="matrix(0.2751 -0.9614 0.9614 0.2751 15.9467 277.4301)" class="st0" width="116.4" height="16"/>
<path class="st0" d="M138.9,174.1l10.2-12.3L108.5,128l40.6-33.9l-10.2-12.3l-48,40c-3.4,2.8-3.8,7.9-1,11.3c0.3,0.4,0.6,0.7,1,1
	L138.9,174.1z"/>
<path class="st0" d="M245.1,174.1l48-40c3.4-2.8,3.8-7.9,1-11.3c-0.3-0.4-0.6-0.7-1-1l-48-40l-10.2,12.3l40.6,33.8l-40.6,33.9
	L245.1,174.1z"/>
</svg>
